<mxfile host="65bd71144e">
    <diagram id="F2fhzsgZS-mnZyFLeK-5" name="PÃ¡gina-1">
        <mxGraphModel dx="2025" dy="471" grid="1" gridSize="10" guides="1" tooltips="1" connect="1" arrows="1" fold="1" page="1" pageScale="1" pageWidth="827" pageHeight="1169" math="0" shadow="0">
            <root>
                <mxCell id="0"/>
                <mxCell id="1" parent="0"/>
                <mxCell id="8" value="" style="edgeStyle=none;html=1;rounded=1;" parent="1" source="3" target="4" edge="1">
                    <mxGeometry relative="1" as="geometry"/>
                </mxCell>
                <mxCell id="3" value="Start" style="rounded=1;whiteSpace=wrap;html=1;arcSize=50;fillColor=#60a917;fontColor=#ffffff;strokeColor=#2D7600;" parent="1" vertex="1">
                    <mxGeometry x="70" y="50" width="120" height="40" as="geometry"/>
                </mxCell>
                <mxCell id="19" value="" style="edgeStyle=none;html=1;rounded=1;" parent="1" source="4" target="9" edge="1">
                    <mxGeometry relative="1" as="geometry"/>
                </mxCell>
                <mxCell id="4" value="Single player?&lt;br&gt;or&lt;br&gt;Multiplayer?" style="shape=parallelogram;perimeter=parallelogramPerimeter;whiteSpace=wrap;html=1;fixedSize=1;size=20;fillColor=#6d8764;fontColor=#ffffff;strokeColor=#3A5431;rounded=1;" parent="1" vertex="1">
                    <mxGeometry x="70" y="130" width="120" height="60" as="geometry"/>
                </mxCell>
                <mxCell id="15" value="" style="edgeStyle=none;html=1;fillColor=#6d8764;strokeColor=#3A5431;rounded=1;" parent="1" source="9" target="14" edge="1">
                    <mxGeometry relative="1" as="geometry"/>
                </mxCell>
                <mxCell id="23" value="" style="edgeStyle=none;html=1;fillColor=#6d8764;strokeColor=#3A5431;rounded=1;" parent="1" source="9" target="22" edge="1">
                    <mxGeometry relative="1" as="geometry"/>
                </mxCell>
                <mxCell id="9" value="Answer" style="rhombus;whiteSpace=wrap;html=1;fillColor=#6d8764;fontColor=#ffffff;strokeColor=#3A5431;rounded=1;" parent="1" vertex="1">
                    <mxGeometry x="90" y="240" width="80" height="80" as="geometry"/>
                </mxCell>
                <mxCell id="18" value="" style="edgeStyle=none;html=1;fillColor=#6d8764;strokeColor=#3A5431;rounded=1;" parent="1" source="13" target="17" edge="1">
                    <mxGeometry relative="1" as="geometry"/>
                </mxCell>
                <mxCell id="13" value="Player 2 Name" style="shape=manualInput;whiteSpace=wrap;html=1;fillColor=#6d8764;fontColor=#ffffff;strokeColor=#3A5431;rounded=1;" parent="1" vertex="1">
                    <mxGeometry x="360" y="240" width="80" height="80" as="geometry"/>
                </mxCell>
                <mxCell id="16" value="" style="edgeStyle=none;html=1;fillColor=#6d8764;strokeColor=#3A5431;rounded=1;" parent="1" source="14" target="13" edge="1">
                    <mxGeometry relative="1" as="geometry"/>
                </mxCell>
                <mxCell id="14" value="Player 1&lt;br&gt;Name" style="shape=manualInput;whiteSpace=wrap;html=1;fillColor=#6d8764;fontColor=#ffffff;strokeColor=#3A5431;rounded=1;" parent="1" vertex="1">
                    <mxGeometry x="220" y="240" width="80" height="80" as="geometry"/>
                </mxCell>
                <mxCell id="21" value="" style="edgeStyle=none;html=1;fillColor=#6d8764;strokeColor=#3A5431;rounded=1;" parent="1" source="17" target="20" edge="1">
                    <mxGeometry relative="1" as="geometry"/>
                </mxCell>
                <mxCell id="17" value="raffle player" style="whiteSpace=wrap;html=1;fillColor=#6d8764;fontColor=#ffffff;strokeColor=#3A5431;rounded=1;" parent="1" vertex="1">
                    <mxGeometry x="500" y="250" width="120" height="60" as="geometry"/>
                </mxCell>
                <mxCell id="32" value="" style="edgeStyle=none;html=1;rounded=1;" parent="1" source="20" target="29" edge="1">
                    <mxGeometry relative="1" as="geometry"/>
                </mxCell>
                <mxCell id="20" value="Drawn player enters word" style="shape=manualInput;whiteSpace=wrap;html=1;fillColor=#6d8764;fontColor=#ffffff;strokeColor=#3A5431;rounded=1;" parent="1" vertex="1">
                    <mxGeometry x="450" y="380" width="80" height="80" as="geometry"/>
                </mxCell>
                <mxCell id="30" value="" style="edgeStyle=none;html=1;rounded=1;" parent="1" source="22" target="24" edge="1">
                    <mxGeometry relative="1" as="geometry"/>
                </mxCell>
                <mxCell id="22" value="randomize in the Array() or List() the word" style="whiteSpace=wrap;html=1;fillColor=#6d8764;fontColor=#ffffff;strokeColor=#3A5431;rounded=1;" parent="1" vertex="1">
                    <mxGeometry x="170" y="410" width="120" height="60" as="geometry"/>
                </mxCell>
                <mxCell id="24" value="Start Game" style="shape=hexagon;perimeter=hexagonPerimeter2;whiteSpace=wrap;html=1;fixedSize=1;fillColor=#6d8764;strokeColor=#3A5431;fontColor=#ffffff;rounded=1;" parent="1" vertex="1">
                    <mxGeometry x="180" y="550" width="120" height="80" as="geometry"/>
                </mxCell>
                <mxCell id="27" value="&lt;h1&gt;Chances&lt;/h1&gt;&lt;p&gt;Total of chances = 15&lt;/p&gt;&lt;p&gt;1 = Head&lt;/p&gt;&lt;p&gt;2 = Body&lt;/p&gt;&lt;p&gt;3 = left leg&amp;nbsp;&lt;/p&gt;&lt;p&gt;4 = right leg&lt;/p&gt;&lt;p&gt;5 = left arm&lt;/p&gt;&lt;p&gt;6 = right arm&lt;/p&gt;&lt;p&gt;7 = left feet&lt;/p&gt;&lt;p&gt;8 = right feet&lt;/p&gt;&lt;p&gt;9 = left hand&lt;/p&gt;&lt;p&gt;10 = right hand&lt;/p&gt;&lt;p&gt;11 = left eye&lt;/p&gt;&lt;p&gt;12 = right eye&lt;/p&gt;&lt;p&gt;13 = nose&lt;/p&gt;&lt;p&gt;14 = lips&lt;/p&gt;&lt;p&gt;15 =&amp;nbsp; hang / end game&lt;/p&gt;" style="text;html=1;strokeColor=#314354;fillColor=#647687;spacing=5;spacingTop=-20;whiteSpace=wrap;overflow=hidden;rounded=1;fontColor=#ffffff;" parent="1" vertex="1">
                    <mxGeometry x="-180" y="20" width="190" height="500" as="geometry"/>
                </mxCell>
                <mxCell id="28" value="End" style="rounded=1;whiteSpace=wrap;html=1;arcSize=50;fillColor=#a0522d;fontColor=#ffffff;strokeColor=#6D1F00;" parent="1" vertex="1">
                    <mxGeometry x="320" y="1010" width="120" height="60" as="geometry"/>
                </mxCell>
                <mxCell id="29" value="Start Game" style="shape=hexagon;perimeter=hexagonPerimeter2;whiteSpace=wrap;html=1;fixedSize=1;fillColor=#6d8764;strokeColor=#3A5431;fontColor=#ffffff;rounded=1;" parent="1" vertex="1">
                    <mxGeometry x="430" y="545" width="120" height="80" as="geometry"/>
                </mxCell>
            </root>
        </mxGraphModel>
    </diagram>
</mxfile>